<svg width="537" height="181" viewBox="0 0 537 181" fill="none" xmlns="http://www.w3.org/2000/svg">
<path d="M94.38 73.46C94.07 73.97 93.32 73.97 93.01 73.46L47.88 0H0V180.2H53.54L52.05 90.83L92.52 154.37C93.07 155.23 94.32 155.23 94.87 154.37L135.34 90.83L133.85 180.2H187.39V0H139.51L94.38 73.46Z" fill="#161616"/>
<path d="M343.9 104.08C340.66 98.11 336.08 93.01 330.29 88.92L330.23 88.88C328.47 87.58 326.58 86.38 324.63 85.3L318.88 82.14L324.17 78.26C327.14 76.09 329.7 73.44 331.79 70.39L331.82 70.34C333.35 68.17 334.65 65.82 335.7 63.28C336.27 61.92 336.77 60.5 337.2 59.04C337.64 57.57 338.01 56.04 338.3 54.46C338.55 53.14 338.75 51.79 338.9 50.41C339.15 48.23 339.27 45.95 339.27 43.59C339.27 34.89 336.85 27.19 332.08 20.71L332.04 20.66C327.43 14.18 320.52 9.08 311.48 5.5C304.9 2.84 297.13 1.15001 288.28 0.460007C285.6 0.250007 282.82 0.130006 279.95 0.100006C279.48 0.0900061 279 0.0899963 278.52 0.0899963H195.63V180.28H263.17L347.34 112.83C346.53 109.73 345.38 106.81 343.9 104.08ZM247.11 43.85H268.48C274.63 43.85 279.05 45.15 281.61 47.71C284.34 50.1 285.73 53.3 285.73 57.23C285.73 60.14 285.12 62.65 283.92 64.7C282.89 66.59 281.08 68.06 278.52 69.07C276.13 70.1 272.92 70.62 268.99 70.62H247.11V43.85ZM292.98 129.75L292.89 129.91C291.73 132.03 290.07 133.71 287.95 134.89L287.62 135.05C285.42 136.02 282.71 136.52 279.55 136.52H247.11V107.69H278.26C281.85 107.69 284.88 108.29 287.27 109.49H287.29C289.66 110.52 291.48 112.07 292.68 114.12C294.04 116 294.74 118.43 294.74 121.33C294.74 124.54 294.14 127.37 292.98 129.75Z" fill="#161616"/>
<path d="M338.54 15.99C344.33 23.87 347.27 33.16 347.27 43.59C347.27 47.94 346.9 52.1 346.17 55.93C346.15 56.02 346.14 56.1 346.12 56.19L382.14 85.06L438.39 39.98L410.16 0.0899963H319.05C322.44 1.73 325.55 3.59999 328.35 5.67999C332.38 8.67999 335.78 12.12 338.54 15.99Z" fill="#161616"/>
<path d="M535.97 177.87L478.82 97.11L449.27 138.86L500.95 180.27H535.38C535.93 180.04 536.11 179.5 536.16 179.27C536.27 178.8 536.2 178.29 535.97 177.88V177.87Z" fill="#161616"/>
<path d="M535.97 2.49001C536.2 2.07001 536.27 1.56 536.16 1.09C536.11 0.869996 535.93 0.319996 535.38 0.0899963H500.95L443.02 46.52L388.53 90.18L279.19 177.8C278.17 178.63 278.75 180.28 280.06 180.28H410.16L443.02 133.85L473.92 90.18L535.97 2.49001Z" fill="#161616"/>
</svg>
